<svg width="247" height="247" viewBox="0 0 247 247" fill="none" xmlns="http://www.w3.org/2000/svg">
<path d="M51.4585 185.25V224.008L67.0504 214.653L116.059 185.25H164.667C176.019 185.25 185.25 176.018 185.25 164.667V82.3333C185.25 70.9816 176.019 61.75 164.667 61.75H41.1668C29.8151 61.75 20.5835 70.9816 20.5835 82.3333V164.667C20.5835 176.018 29.8151 185.25 41.1668 185.25H51.4585ZM41.1668 82.3333H164.667V164.667H110.358L72.0418 187.658V164.667H41.1668V82.3333Z" fill="#1FA56F"/>
<path d="M205.833 20.5835H82.3333C70.9816 20.5835 61.75 29.8151 61.75 41.1668H185.25C196.602 41.1668 205.833 50.3985 205.833 61.7502V144.083C217.185 144.083 226.417 134.852 226.417 123.5V41.1668C226.417 29.8151 217.185 20.5835 205.833 20.5835Z" fill="#1FA56F"/>
</svg>
