<svg width="64" height="64" viewBox="0 0 64 64" fill="none" xmlns="http://www.w3.org/2000/svg">
<path d="M36 21C36 18.794 34.206 17 32 17C29.794 17 28 18.794 28 21C28 23.206 29.794 25 32 25C34.206 25 36 23.206 36 21ZM30 21C30 19.897 30.897 19 32 19C33.103 19 34 19.897 34 21C34 22.103 33.103 23 32 23C30.897 23 30 22.103 30 21Z" fill="#FC2F2F"/>
<path d="M27 41V47H37V41H35V27H27V33H29V41H27ZM29 31V29H33V43H35V45H29V43H31V31H29Z" fill="#FC2F2F"/>
<path d="M32 1C14.907 1 1 14.907 1 32C1 49.093 14.907 63 32 63C49.093 63 63 49.093 63 32C63 14.907 49.093 1 32 1ZM32 61C16.009 61 3 47.991 3 32C3 16.009 16.009 3 32 3C47.991 3 61 16.009 61 32C61 47.991 47.991 61 32 61Z" fill="#FC2F2F"/>
<path d="M31.9998 7C26.7638 7 21.7458 8.607 17.4878 11.649L18.6498 13.277C22.5668 10.479 27.1838 9 31.9998 9C44.6818 9 54.9998 19.318 54.9998 32C54.9998 36.816 53.5208 41.433 50.7228 45.35L52.3508 46.512C55.3928 42.254 56.9998 37.236 56.9998 32C56.9998 18.215 45.7848 7 31.9998 7Z" fill="#FC2F2F"/>
<path d="M32 55C19.318 55 9 44.682 9 32C9 27.183 10.479 22.567 13.277 18.65L11.65 17.488C8.608 21.746 7 26.764 7 32C7 45.785 18.215 57 32 57C37.236 57 42.254 55.393 46.512 52.351L45.35 50.723C41.433 53.521 36.816 55 32 55Z" fill="#FC2F2F"/>
</svg>
