<svg width="64" height="64" viewBox="0 0 64 64" fill="none" xmlns="http://www.w3.org/2000/svg">
<path d="M44.9998 47V51H43.8058C42.2228 51 40.6688 50.455 39.4328 49.466L36.7628 47.33C41.0358 45.77 43.9998 41.66 43.9998 37C43.9998 30.935 39.0648 26 32.9998 26C26.9348 26 21.9998 30.935 21.9998 37C21.9998 39.979 23.1708 42.768 25.2968 44.852L25.2978 44.853C25.3508 44.905 25.4138 44.948 25.4688 45L25.3718 45.389C25.0648 46.616 25.5658 47.91 26.6188 48.614L29.1008 50.268C29.1618 50.308 29.2138 50.357 29.2708 50.401L27.0418 50.958C26.8998 50.994 26.7558 51.019 26.6118 51.033L21.3968 51.554L19.1328 47.026C18.8998 46.56 18.5478 46.162 18.1128 45.871L17.9168 45.741C17.1068 45.201 16.0798 45.087 15.1708 45.438C14.2618 45.79 13.5778 46.564 13.3418 47.509L13.2898 47.874C12.7238 47.312 11.9708 47 11.1708 47H10.4408C9.14777 47 8.00377 47.824 7.59377 49.052L7.44177 49.511C7.07977 50.596 7.35777 51.772 8.16677 52.581L11.6238 56.038C12.8268 57.24 14.3128 58.159 15.9238 58.694L21.1448 60.435C22.2668 60.811 23.4368 61 24.6228 61H40.7688C41.6658 61 42.5638 60.89 43.4368 60.671L44.9998 60.28V63H62.9998V47H44.9998ZM32.9998 28C37.9618 28 41.9998 32.038 41.9998 37C41.9998 41.244 38.9988 44.936 34.8578 45.805L32.6008 44H33.9998V43H35.9998C37.6538 43 38.9998 41.654 38.9998 40V39C38.9998 37.346 37.6538 36 35.9998 36H29.9998C29.4478 36 28.9998 35.552 28.9998 35V34C28.9998 33.448 29.4488 33 29.9998 33H35.9998C36.5518 33 36.9998 33.448 36.9998 34H38.9998C38.9998 32.346 37.6538 31 35.9998 31H33.9998V30H31.9998V31H29.9998C28.3458 31 26.9998 32.346 26.9998 34V35C26.9998 36.654 28.3458 38 29.9998 38H35.9998C36.5518 38 36.9998 38.448 36.9998 39V40C36.9998 40.552 36.5508 41 35.9998 41H29.9998C29.4478 41 28.9998 40.552 28.9998 40H26.9998C26.9998 41.009 27.5048 41.899 28.2708 42.443C27.7958 42.472 27.3308 42.601 26.9118 42.853C26.7528 42.948 26.6078 43.06 26.4718 43.179C24.8808 41.503 23.9998 39.325 23.9998 37C23.9998 32.038 28.0378 28 32.9998 28ZM31.9648 43.491C31.6868 43.269 31.3618 43.111 31.0238 43H31.9998V43.519L31.9648 43.491ZM15.2928 47.952C15.3808 47.653 15.5968 47.419 15.8908 47.306C16.1988 47.187 16.5328 47.224 16.8078 47.408L17.0028 47.538C17.1478 47.635 17.2648 47.767 17.3428 47.923L19.2658 51.77L18.7868 51.818C17.8828 51.906 17.0048 51.592 16.3668 50.954L15.0588 49.647L15.2928 47.952ZM42.9518 58.731C42.2368 58.909 41.5028 59 40.7688 59H24.6228C23.6528 59 22.6958 58.845 21.7768 58.539L16.5558 56.797C15.2378 56.359 14.0218 55.608 13.0378 54.624L9.58177 51.167C9.31177 50.897 9.21977 50.505 9.34077 50.143L9.49277 49.684C9.62877 49.274 10.0098 49 10.4408 49H11.1708C11.4378 49 11.6898 49.104 11.8788 49.293L14.9518 52.366C16.0168 53.431 17.4918 53.956 18.9858 53.806L26.8108 53.024C27.0518 53 27.2898 52.958 27.5248 52.899L30.3738 52.187C30.4578 52.611 30.4548 53.056 30.3458 53.492L30.0298 54.758L31.9698 55.242L32.2858 53.976C32.7968 51.932 31.9618 49.773 30.2088 48.604L27.7278 46.95C27.3768 46.716 27.2088 46.284 27.3118 45.876L27.4848 45.183C27.5488 44.924 27.7118 44.705 27.9408 44.568C28.1698 44.431 28.4368 44.393 28.6978 44.456L30.3358 44.866C30.4738 44.9 30.6058 44.966 30.7168 45.054L38.1848 51.029C39.7728 52.3 41.7698 53 43.8058 53H44.9998V58.22L42.9518 58.731ZM60.9998 61H46.9998V49H56.9998V53H58.9998V49H60.9998V61Z" fill="#35B984"/>
<path d="M53 51C50.794 51 49 52.794 49 55C49 57.206 50.794 59 53 59C55.206 59 57 57.206 57 55C57 52.794 55.206 51 53 51ZM53 57C51.897 57 51 56.103 51 55C51 53.897 51.897 53 53 53C54.103 53 55 53.897 55 55C55 56.103 54.103 57 53 57Z" fill="#35B984"/>
<path d="M59 55H57V57H59V55Z" fill="#35B984"/>
<path d="M23 24C23 17.935 18.065 13 12 13C5.935 13 1 17.935 1 24C1 30.065 5.935 35 12 35C18.065 35 23 30.065 23 24ZM3 24C3 19.038 7.038 15 12 15C16.962 15 21 19.038 21 24C21 28.962 16.962 33 12 33C7.038 33 3 28.962 3 24Z" fill="#35B984"/>
<path d="M13 31V30H15C16.654 30 18 28.654 18 27V26C18 24.346 16.654 23 15 23H9C8.448 23 8 22.551 8 22V21C8 20.448 8.449 20 9 20H15C15.552 20 16 20.449 16 21H18C18 19.346 16.654 18 15 18H13V17H11V18H9C7.346 18 6 19.346 6 21V22C6 23.654 7.346 25 9 25H15C15.552 25 16 25.449 16 26V27C16 27.552 15.551 28 15 28H9C8.448 28 8 27.551 8 27H6C6 28.654 7.346 30 9 30H11V31H13Z" fill="#35B984"/>
<path d="M38 1H36V7H38V1Z" fill="#35B984"/>
<path d="M38 9H36V13H38V9Z" fill="#35B984"/>
<path d="M38 15H36V25H38V15Z" fill="#35B984"/>
<path d="M34 1H32V3H34V1Z" fill="#35B984"/>
<path d="M34 11H32V24H34V11Z" fill="#35B984"/>
<path d="M34 5H32V9H34V5Z" fill="#35B984"/>
<path d="M30 7H28V11H30V7Z" fill="#35B984"/>
<path d="M30 13H28V25H30V13Z" fill="#35B984"/>
<path d="M18 1H16V5H18V1Z" fill="#35B984"/>
<path d="M18 7H16V12H18V7Z" fill="#35B984"/>
<path d="M14 1H12V3H14V1Z" fill="#35B984"/>
<path d="M14 5H12V11H14V5Z" fill="#35B984"/>
<path d="M10 5H8V11H10V5Z" fill="#35B984"/>
</svg>
