<svg width="64" height="64" viewBox="0 0 64 64" fill="none" xmlns="http://www.w3.org/2000/svg">
<path d="M54 8.99996H47V0.999962H2.026L1.026 0.985962C1.009 2.31196 1 15.87 1 16V49C1 52.309 3.243 55 6 55H17V63H63V18C63 13.038 58.963 8.99996 54 8.99996ZM3 49V16C3 15.895 3.006 7.11596 3.017 2.99996H45V8.99996H14C11.243 8.99996 9 11.243 9 14V18V47V49C9 51.206 7.654 53 6 53C4.346 53 3 51.206 3 49ZM17 14V53H9.716C10.511 51.937 11 50.538 11 49V47V18V14C11 12.346 12.346 11 14 11C15.654 11 17 12.346 17 14ZM61 61H19V55V54V14C19 12.87 18.609 11.838 17.974 11H54C57.859 11 61 14.14 61 18V61Z" fill="#35B984"/>
<path d="M41 41H57V25H41V41ZM43 27H55V39H43V27Z" fill="#35B984"/>
<path d="M23 41H39V25H23V41ZM25 27H37V39H25V27Z" fill="#35B984"/>
<path d="M41 59H57V43H41V59ZM43 45H55V57H43V45Z" fill="#35B984"/>
<path d="M53 32H45V34H53V32Z" fill="#35B984"/>
<path d="M53 50H45V52H53V50Z" fill="#35B984"/>
<path d="M53.9999 13H30.7009L20.7769 18L30.7009 23H53.9999C56.7569 23 58.9999 20.757 58.9999 18C58.9999 15.243 56.7569 13 53.9999 13ZM47.9999 17H31.9999V15H47.9999V17ZM31.9999 19H47.9999V21H31.9999V19ZM49.9999 15H51.9999V21H49.9999V15ZM29.9999 15.593V20.408L25.2229 18L29.9999 15.593ZM53.9999 21V15C55.6539 15 56.9999 16.346 56.9999 18C56.9999 19.654 55.6539 21 53.9999 21Z" fill="#35B984"/>
<path d="M32 29H30V32H27V34H30V37H32V34H35V32H32V29Z" fill="#35B984"/>
<path d="M23 59H39V43H23V59ZM25 45H37V57H25V45Z" fill="#35B984"/>
<path d="M33.1208 47.465L30.9998 49.586L28.8788 47.465L27.4648 48.879L29.5858 51L27.4648 53.121L28.8788 54.535L30.9998 52.414L33.1208 54.535L34.5348 53.121L32.4138 51L34.5348 48.879L33.1208 47.465Z" fill="#35B984"/>
<path d="M50 53H48V55H50V53Z" fill="#35B984"/>
<path d="M50 47H48V49H50V47Z" fill="#35B984"/>
</svg>
