<svg width="64" height="64" viewBox="0 0 64 64" fill="none" xmlns="http://www.w3.org/2000/svg">
<path d="M46 29C39.933 29 34.613 32.205 31.604 37H1V47H7V53H1V63H35V62V61V58.938C37.968 61.465 41.805 63 46 63C55.374 63 63 55.374 63 46C63 36.626 55.374 29 46 29ZM25 59V61H23V55H25V57H27V55H29V61H27V59H25ZM7 39H9V41H11V39H13V45H11V43H9V45H7V39ZM23 47V53H21V47H23ZM19 47V53H17V47H19ZM25 53V47H27V53H25ZM23 45V39H25V45H23ZM21 45H19V39H21V45ZM17 45H15V39H17V45ZM15 47V53H13V47H15ZM11 55H13V61H11V55ZM9 61H7V55H9V61ZM15 55H17V61H15V55ZM19 55H21V61H19V55ZM29 53V47H29.051C29.176 49.129 29.686 51.151 30.526 53H29ZM29.051 45H27V39H30.526C29.686 40.849 29.175 42.871 29.051 45ZM3 39H5V45H3V39ZM9 47H11V53H9V47ZM3 55H5V61H3V55ZM31 61V55H31.604C32.044 55.702 32.527 56.372 33.062 57H33V61H31ZM46 61C37.729 61 31 54.271 31 46C31 37.729 37.729 31 46 31C54.271 31 61 37.729 61 46C61 54.271 54.271 61 46 61Z" fill="#35B984"/>
<path d="M17.729 16.384L20.129 17.978C21.137 18.646 22.292 19 23.473 19H24.682C26.141 19 27.394 18.08 28 16.757V19H33V21V22V29H37C38.654 29 40 27.654 40 25.961C40 25.656 40.137 25.371 40.376 25.18L44.351 22H53.037L61.598 17.356C62.463 16.887 63 15.984 63 15C63 14.016 62.463 13.113 61.598 12.644L53.037 8H44.351L40.376 4.82C40.137 4.629 40 4.344 40 4C40 2.346 38.654 1 37 1H33V8V9V11H28V13.243C27.394 11.92 26.141 11 24.682 11H23.473C22.292 11 21.137 11.354 20.13 12.022L17.73 13.616C17.272 13.918 17 14.436 17 15C17 15.564 17.272 16.082 17.729 16.384ZM39.126 23.619C38.41 24.191 38 25.045 38 26C38 26.551 37.552 27 37 27H35V22H41.149L39.126 23.619ZM60.645 14.402C60.863 14.521 61 14.75 61 15C61 15.25 60.863 15.479 60.645 15.598L52.529 20H35V10H52.529L60.645 14.402ZM35 3H37C37.552 3 38 3.449 38 4.039C38 4.955 38.41 5.809 39.126 6.382L41.149 8H35V3ZM30 13H33V17H30V13ZM21.235 13.688C21.914 13.238 22.688 13 23.473 13H24.682C25.626 13 26.394 13.897 26.394 15C26.394 16.103 25.626 17 24.682 17H23.473C22.688 17 21.914 16.762 21.236 16.312L19.26 15L21.235 13.688Z" fill="#35B984"/>
<path d="M19 33H17V35H19V33Z" fill="#35B984"/>
<path d="M8 28H14C15.654 28 17 29.346 17 31H19C19 28.243 16.757 26 14 26H8C5.243 26 3 23.757 3 21C3 18.243 5.243 16 8 16H15V14H8C4.141 14 1 17.14 1 21C1 24.86 4.141 28 8 28Z" fill="#35B984"/>
<path d="M47 19C49.206 19 51 17.206 51 15C51 12.794 49.206 11 47 11C44.794 11 43 12.794 43 15C43 17.206 44.794 19 47 19ZM47 13C48.103 13 49 13.897 49 15C49 16.103 48.103 17 47 17C45.897 17 45 16.103 45 15C45 13.897 45.897 13 47 13Z" fill="#35B984"/>
<path d="M47 35V33H45V35C41.691 35 39 37.691 39 41C39 44.309 41.691 47 45 47H47C49.206 47 51 48.794 51 51C51 53.206 49.206 55 47 55H45C42.794 55 41 53.206 41 51V50H39V51C39 54.309 41.691 57 45 57V59H47V57C50.309 57 53 54.309 53 51C53 47.691 50.309 45 47 45H45C42.794 45 41 43.206 41 41C41 38.794 42.794 37 45 37H47C49.206 37 51 38.794 51 41V42H53V41C53 37.691 50.309 35 47 35Z" fill="#35B984"/>
<path d="M57 45H55V47H57V45Z" fill="#35B984"/>
<path d="M37 45H35V47H37V45Z" fill="#35B984"/>
</svg>
