<svg width="64" height="64" viewBox="0 0 64 64" fill="none" xmlns="http://www.w3.org/2000/svg">
<path d="M32 51C32 45.486 27.514 41 22 41C16.486 41 12 45.486 12 51C12 56.514 16.486 61 22 61C27.514 61 32 56.514 32 51ZM22 59C17.589 59 14 55.411 14 51C14 46.589 17.589 43 22 43C26.411 43 30 46.589 30 51C30 55.411 26.411 59 22 59Z" fill="#35B984"/>
<path d="M39 43H37V45H39V43Z" fill="#35B984"/>
<path d="M7 43H5V45H7V43Z" fill="#35B984"/>
<path d="M7 57H5V59H7V57Z" fill="#35B984"/>
<path d="M39 57H37V59H39V57Z" fill="#35B984"/>
<path d="M21 1V15.685L13 4.256L4.079 17H8V39H1V63H34H43H63V1H21ZM21 39H18V17H21V39ZM7.92 15L13 7.744L18.08 15H16V39H10V15H7.92ZM34 61H22H3V41H22H41V61H34ZM61 61H43V39H27V35H47V39H59V9H25V25V27V29V31V33V35V39H23V3H61V61ZM49 35H57V37H49V35ZM49 33V31H57V33H49ZM49 29V27H57V29H49ZM49 25V23H57V25H49ZM57 21H49V19H57V21ZM57 17H49V15H57V17ZM57 13H49V11H57V13ZM47 13H27V11H47V13ZM27 15H47V17H27V15ZM27 19H47V21H27V19ZM27 23H47V25H27V23ZM47 27V29H27V27H47ZM47 31V33H27V31H47Z" fill="#35B984"/>
<path d="M59 5H48V7H59V5Z" fill="#35B984"/>
<path d="M46 5H25V7H46V5Z" fill="#35B984"/>
<path d="M59 45H45V47H59V45Z" fill="#35B984"/>
<path d="M59 49H57V51H59V49Z" fill="#35B984"/>
<path d="M55 49H45V51H55V49Z" fill="#35B984"/>
</svg>
