<svg width="64" height="64" viewBox="0 0 64 64" fill="none" xmlns="http://www.w3.org/2000/svg">
<path d="M48 25.432V24H50V20H53V14H47.297L27 0.807007L6.703 14H1V20H4V24H6V40H4V44H1V50H25.986C28.506 57.542 35.621 63 44 63C54.477 63 63 54.477 63 44C63 34.896 56.561 27.275 48 25.432ZM46 25.107C45.342 25.038 44.676 25 44 25V24H46V25.107ZM25.107 42C25.038 42.658 25 43.324 25 44H18V42H25.107ZM25.432 40H24V38H22V40H20V24H22V36H24V24H26V20H28V24H30V31.2C27.767 33.64 26.153 36.652 25.432 40ZM18 22V20H24V22H18ZM30 22V20H36V22H30ZM32 24H34V27.875C33.305 28.307 32.631 28.77 32 29.285V24ZM36 24H38V20H40V24H42V25.107C39.874 25.331 37.86 25.922 36 26.79V24ZM48 22H42V20H48V22ZM27 6.00001C28.654 6.00001 30 7.34601 30 9.00001C30 10.654 28.654 12 27 12C25.346 12 24 10.654 24 9.00001C24 7.34601 25.346 6.00001 27 6.00001ZM28.758 4.33601C28.209 4.12801 27.621 4.00001 27 4.00001C26.379 4.00001 25.791 4.12801 25.242 4.33601L27 3.19301L28.758 4.33601ZM23.424 5.51701C22.546 6.41901 22 7.64501 22 9.00001C22 11.757 24.243 14 27 14C29.757 14 32 11.757 32 9.00001C32 7.64501 31.454 6.41901 30.576 5.51701L43.626 14H27H10.374L23.424 5.51701ZM3 18V16H3.626H50.373H51V18H50H40H38H28H26H16H14H4H3ZM12 20V22H6V20H12ZM8 24H10V26H12V24H14V20H16V24H18V40H16V44H14V40H12V28H10V40H8V24ZM6 42H12V44H6V42ZM3 48V46H4H14H16H25.107C25.178 46.679 25.29 47.344 25.432 48H3ZM44 61C34.626 61 27 53.374 27 44C27 39.32 28.901 35.077 31.971 32H32V31.971C35.077 28.901 39.32 27 44 27C53.374 27 61 34.626 61 44C61 53.374 53.374 61 44 61Z" fill="#35B984"/>
<path d="M51 41V39C51 35.134 47.866 32 44 32C40.134 32 37 35.134 37 39V41H35V54H53V41H51ZM39 39C39 36.243 41.243 34 44 34C46.757 34 49 36.243 49 39V41H39V39ZM51 52H37V43H51V52Z" fill="#35B984"/>
<path d="M43 47.611V50H45V47.611C45.305 47.336 45.5 46.943 45.5 46.5C45.5 45.672 44.828 45 44 45C43.172 45 42.5 45.672 42.5 46.5C42.5 46.943 42.695 47.336 43 47.611Z" fill="#35B984"/>
</svg>
