<svg width="105" height="59" viewBox="0 0 105 59" fill="none" xmlns="http://www.w3.org/2000/svg">
<path d="M0 8.13242V3.46094H25.3595V8.13242H0ZM10.1438 34.5596V4.3285H15.2824V34.5596H10.1438Z" fill="black"/>
<path d="M29.8975 35.0269C27.9622 35.0269 26.2271 34.5597 24.6922 33.5587C23.1573 32.5576 21.8893 31.2229 21.0217 29.5545C20.0874 27.8862 19.687 26.0176 19.687 23.9488C19.687 21.8132 20.1542 19.9446 21.0217 18.2763C21.956 16.6079 23.1573 15.2732 24.6922 14.2721C26.2271 13.2711 27.9622 12.804 29.8975 12.804C31.4992 12.804 32.9674 13.1376 34.2353 13.8717C35.5033 14.5391 36.5043 15.5401 37.2384 16.7413C37.9725 17.9426 38.3729 19.344 38.3729 20.8789V27.0186C38.3729 28.5535 38.0393 29.955 37.3052 31.1562C36.5711 32.3574 35.57 33.3585 34.3021 34.0258C32.9674 34.6264 31.4992 35.0269 29.8975 35.0269ZM30.6984 30.3554C32.5002 30.3554 33.9684 29.7548 35.1029 28.5535C36.2374 27.3523 36.7713 25.8174 36.7713 23.882C36.7713 22.6141 36.5043 21.4796 36.0372 20.4785C35.57 19.4775 34.836 18.7434 33.9017 18.2095C32.9674 17.6756 31.9663 17.4087 30.6984 17.4087C29.4971 17.4087 28.4961 17.6756 27.5618 18.2095C26.6275 18.7434 25.9601 19.5442 25.4263 20.4785C24.8924 21.4128 24.6254 22.6141 24.6254 23.882C24.6254 25.15 24.8924 26.2845 25.4263 27.2855C25.9601 28.2866 26.6275 29.0207 27.5618 29.5545C28.4961 30.0884 29.4971 30.3554 30.6984 30.3554ZM36.4376 34.5597V28.8205L37.3052 23.6151L36.4376 18.4765V13.2044H41.3093V34.5597H36.4376Z" fill="black"/>
<path d="M10.2104 48.8409C9.60975 48.6407 9.1426 48.4405 8.74219 48.1068L9.27607 46.9056C9.60975 47.1725 10.0102 47.3727 10.544 47.5729C11.0779 47.7732 11.5451 47.8399 12.079 47.8399C12.6796 47.8399 13.1467 47.7732 13.4804 47.5729C13.8141 47.3727 13.9475 47.1058 13.9475 46.7721C13.9475 46.5052 13.8808 46.305 13.6806 46.1715C13.4804 46.038 13.2802 45.9046 13.0133 45.8378C12.7463 45.7711 12.4126 45.6376 11.9455 45.5041C11.2781 45.3707 10.811 45.1705 10.4106 45.037C10.0102 44.9035 9.67648 44.6366 9.40954 44.3029C9.1426 43.9692 9.00913 43.5688 9.00913 42.9682C9.00913 42.5011 9.1426 42.1006 9.40954 41.7002C9.67648 41.2998 10.0102 41.0329 10.544 40.7659C11.0779 40.499 11.6785 40.4323 12.4126 40.4323C12.9465 40.4323 13.4137 40.499 13.9475 40.6325C14.4147 40.7659 14.8818 40.9661 15.2155 41.1663L14.7484 42.3676C14.348 42.1674 14.0143 41.9672 13.6139 41.9004C13.2135 41.767 12.813 41.7002 12.4794 41.7002C11.8788 41.7002 11.4116 41.8337 11.0779 42.0339C10.7443 42.2341 10.6108 42.501 10.6108 42.8347C10.6108 43.1017 10.6775 43.3019 10.8777 43.4353C11.0779 43.5688 11.2781 43.7023 11.5451 43.769C11.812 43.8358 12.1457 43.9692 12.6128 44.1027C13.2135 44.2362 13.7473 44.3696 14.1478 44.5699C14.5482 44.7033 14.8818 44.9703 15.1488 45.3039C15.4157 45.6376 15.5492 46.038 15.5492 46.5719C15.5492 47.0391 15.4157 47.4395 15.1488 47.8399C14.8818 48.2403 14.4814 48.5072 14.0143 48.7074C13.4804 48.9077 12.8798 49.0411 12.1457 49.0411C11.4116 49.1079 10.811 48.9744 10.2104 48.8409Z" fill="black"/>
<path d="M18.8195 41.9004H16.0166V40.5657H23.1573V41.9004H20.3544V48.9743H18.8195V41.9004Z" fill="black"/>
<path d="M29.7643 48.9743L28.0292 46.5051C27.9624 46.5051 27.829 46.5051 27.6955 46.5051H25.8269V48.9743H24.292V40.5657H27.7622C28.4963 40.5657 29.0969 40.6991 29.6976 40.8994C30.2314 41.1663 30.6319 41.5 30.9655 41.9004C31.2325 42.3675 31.3659 42.9014 31.3659 43.502C31.3659 44.1026 31.2325 44.7033 30.8988 45.1037C30.5651 45.5041 30.1647 45.9045 29.5641 46.1047L31.4994 48.8409H29.7643V48.9743ZM29.2304 42.3008C28.8967 42.0339 28.3629 41.9004 27.6955 41.9004H25.8936V45.2372H27.6955C28.3629 45.2372 28.8967 45.1037 29.2304 44.77C29.5641 44.4363 29.7643 44.0359 29.7643 43.502C29.7643 43.0349 29.5641 42.5677 29.2304 42.3008Z" fill="black"/>
<path d="M38.8402 47.039H34.6359L33.835 48.9743H32.2334L36.0373 40.5657H37.5722L41.3762 48.9743H39.7745L38.8402 47.039ZM38.3063 45.771L36.7047 42.1006L35.103 45.771H38.3063Z" fill="black"/>
<path d="M43.1779 41.9004H40.375V40.5657H47.5157V41.9004H44.7128V48.9743H43.1779V41.9004Z" fill="black"/>
<path d="M54.9235 47.6396V48.9743H48.6504V40.5657H54.7233V41.9004H50.1186V44.0359H54.1894V45.3039H50.1186V47.6396H54.9235Z" fill="black"/>
<path d="M62.0638 44.6366H63.532V47.9734C63.1316 48.3071 62.5977 48.574 61.9971 48.7742C61.3965 48.9744 60.7959 49.0412 60.1952 49.0412C59.3277 49.0412 58.5936 48.8409 57.8595 48.5073C57.1921 48.1069 56.6583 47.6397 56.2578 46.9724C55.8574 46.305 55.6572 45.5709 55.6572 44.7701C55.6572 43.9693 55.8574 43.2352 56.2578 42.5678C56.6583 41.9005 57.1921 41.3666 57.8595 41.0329C58.5268 40.6325 59.3277 40.499 60.1952 40.499C60.9293 40.499 61.5299 40.6325 62.1306 40.8327C62.7312 41.0329 63.1983 41.4333 63.5987 41.8337L62.5977 42.768C61.9304 42.1007 61.1963 41.8337 60.262 41.8337C59.6614 41.8337 59.1275 41.9672 58.6603 42.2341C58.1932 42.5011 57.8595 42.8348 57.5926 43.3019C57.3256 43.7691 57.1921 44.2362 57.1921 44.8368C57.1921 45.3707 57.3256 45.9046 57.5926 46.3717C57.8595 46.8389 58.1932 47.1726 58.6603 47.4395C59.1275 47.7064 59.6613 47.8399 60.1952 47.8399C60.8626 47.8399 61.3965 47.7064 61.9304 47.4395V44.6366H62.0638Z" fill="black"/>
<path d="M69.0714 45.9712V48.9076H67.5365V46.038L64.1997 40.5657H65.8681L68.3373 44.6365L70.8065 40.5657H72.3414L69.0714 45.9712Z" fill="black"/>
<path d="M14.415 57.9171V58.8514H9.87695V52.7784H14.2815V53.7127H10.9447V55.3144H13.8811V56.2487H10.9447V57.9171H14.415Z" fill="black"/>
<path d="M19.5536 58.8514L17.8852 56.5156L16.2836 58.8514H15.0156L17.2846 55.7815L15.1491 52.7784H16.4171L17.952 54.914L19.4869 52.7784H20.6881L18.5526 55.7148L20.8216 58.8514H19.5536Z" fill="black"/>
<path d="M25.5599 53.0452C25.9604 53.2454 26.2273 53.4456 26.4275 53.7793C26.6277 54.113 26.7612 54.5134 26.7612 54.9138C26.7612 55.381 26.6277 55.7146 26.4275 56.0483C26.2273 56.382 25.8936 56.6489 25.5599 56.7824C25.1595 56.9826 24.6924 57.0494 24.1585 57.0494H22.7571V58.7845H21.6226V52.7115H24.0918C24.7591 52.7783 25.1595 52.845 25.5599 53.0452ZM25.293 55.8481C25.5599 55.6479 25.6934 55.3142 25.6934 54.9806C25.6934 54.6469 25.5599 54.3132 25.293 54.113C25.0261 53.9128 24.6924 53.7793 24.1585 53.7793H22.8238V56.1818H24.1585C24.6257 56.1151 25.0261 56.0483 25.293 55.8481Z" fill="black"/>
<path d="M37.5058 58.8514L36.2378 57.0495C36.171 57.0495 36.1043 57.0495 35.9708 57.0495H34.7029V58.8514H33.5684V52.7784H36.0376C36.5715 52.7784 37.0386 52.8452 37.439 53.0454C37.8394 53.2456 38.1064 53.4458 38.3066 53.7795C38.5068 54.1132 38.6403 54.5136 38.6403 54.914C38.6403 55.3811 38.5068 55.7815 38.3066 56.1152C38.1064 56.4489 37.7727 56.7158 37.3723 56.8493L38.7737 58.8514H37.5058ZM37.1053 54.0464C36.8384 53.8462 36.5047 53.7127 35.9708 53.7127H34.6361V56.1152H35.9708C36.438 56.1152 36.8384 55.9817 37.1053 55.7815C37.3723 55.5813 37.5058 55.2477 37.5058 54.914C37.5058 54.5803 37.3723 54.2466 37.1053 54.0464Z" fill="black"/>
<path d="M41.109 53.7127H39.1069V52.7784H44.2456V53.7127H42.2435V58.8514H41.109V53.7127Z" fill="black"/>
<path d="M60.5289 13.8049C52.0535 20.7453 47.2485 28.8871 44.5791 34.5596H48.5832C51.7198 28.0195 56.6582 20.1447 64.7999 13.6046C82.8185 -0.876942 104.241 0.457768 104.241 0.257561C104.174 -0.00938049 80.1491 -2.27839 60.5289 13.8049Z" fill="#35B984"/>
<path d="M54.5898 26.6848L60.1956 34.5596H66.0683L57.5929 22.6807C56.5252 23.9486 55.5241 25.2833 54.5898 26.6848Z" fill="black"/>
<path d="M54.1893 17.9425L50.8525 13.271H44.9131L50.986 21.6797C52.0538 20.345 53.1215 19.1437 54.1893 17.9425Z" fill="black"/>
<path d="M32.3666 57.7167H27.8286V58.8512H32.3666V57.7167Z" fill="#35B984"/>
<path d="M32.3666 52.7783H27.8286V53.9128H32.3666V52.7783Z" fill="#35B984"/>
<path d="M32.3666 55.2476H27.8286V56.3821H32.3666V55.2476Z" fill="#35B984"/>
<path d="M69.2045 57.917H44.5791V58.8513H69.2045V57.917Z" fill="black"/>
<path d="M8.2087 58.7846C8.61413 58.7846 8.94279 58.4559 8.94279 58.0505C8.94279 57.6451 8.61413 57.3164 8.2087 57.3164C7.80327 57.3164 7.47461 57.6451 7.47461 58.0505C7.47461 58.4559 7.80327 58.7846 8.2087 58.7846Z" fill="black"/>
</svg>
