<svg width="120" height="120" viewBox="0 0 120 120" fill="none" xmlns="http://www.w3.org/2000/svg">
<g opacity="0.1" clip-path="url(#clip0_601_570)">
<path fill-rule="evenodd" clip-rule="evenodd" d="M60 20.625C38.2538 20.625 20.625 38.2538 20.625 60C20.625 81.7462 38.2538 99.375 60 99.375C81.7462 99.375 99.375 81.7462 99.375 60C99.375 38.2538 81.7462 20.625 60 20.625ZM9.375 60C9.375 32.0406 32.0406 9.375 60 9.375C87.9594 9.375 110.625 32.0406 110.625 60C110.625 87.9594 87.9594 110.625 60 110.625C32.0406 110.625 9.375 87.9594 9.375 60Z" fill="#FC2F2F"/>
<path d="M43.125 58.125C47.2671 58.125 50.625 54.7671 50.625 50.625C50.625 46.4829 47.2671 43.125 43.125 43.125C38.9829 43.125 35.625 46.4829 35.625 50.625C35.625 54.7671 38.9829 58.125 43.125 58.125Z" fill="#FC2F2F"/>
<path d="M76.875 58.125C81.0171 58.125 84.375 54.7671 84.375 50.625C84.375 46.4829 81.0171 43.125 76.875 43.125C72.7329 43.125 69.375 46.4829 69.375 50.625C69.375 54.7671 72.7329 58.125 76.875 58.125Z" fill="#FC2F2F"/>
<path fill-rule="evenodd" clip-rule="evenodd" d="M47.8933 68.3696C51.6746 66.5662 55.8109 65.6304 60.0002 65.6304C64.1894 65.6304 68.3258 66.5662 72.1071 68.3696C75.8883 70.1729 79.2189 72.7982 81.8557 76.0536C83.8109 78.4676 83.439 82.0097 81.0249 83.965C78.6108 85.9203 75.0688 85.5484 73.1135 83.1343C71.5314 81.181 69.5331 79.6059 67.2643 78.5239C64.9956 77.4419 62.5137 76.8804 60.0002 76.8804C57.4866 76.8804 55.0048 77.4419 52.7361 78.5239C50.4673 79.6059 48.4689 81.181 46.8869 83.1343C44.9316 85.5484 41.3895 85.9203 38.9754 83.965C36.5614 82.0097 36.1894 78.4676 38.1447 76.0536C40.7814 72.7982 44.1121 70.1729 47.8933 68.3696Z" fill="#FC2F2F"/>
</g>
<defs>
<clipPath id="clip0_601_570">
<rect width="120" height="120" fill="white"/>
</clipPath>
</defs>
</svg>
