<svg width="1163" height="584" viewBox="0 0 1163 584" fill="none" xmlns="http://www.w3.org/2000/svg">
<g clip-path="url(#clip0_601_278)">
<path d="M785.212 430.026L1113.65 735.056L1163 780.805L1017.44 781L980.457 735.25L734.163 430.026H785.212Z" fill="#F53131"/>
<path d="M696.155 430.026L880.937 735.056L908.725 780.805L763.07 781L747.643 735.25L645.105 430.026H696.155Z" fill="#E34747"/>
<path d="M607.049 430.026L648.22 735.056L654.449 780.805L508.746 781L514.829 735.25L556.048 430.026H607.049Z" fill="#D05D5D"/>
<path d="M517.992 430.026L415.503 735.056L400.174 780.805L254.373 781L282.015 735.25L466.942 430.026H517.992Z" fill="#A68080"/>
<path d="M428.935 430.026L182.738 735.056L145.898 780.805L0 781L49.2491 735.25L377.885 430.026H428.935Z" fill="#A69A9A"/>
<path d="M785.212 328.998H734.163V430.026H785.212V328.998Z" fill="#DBDBDB"/>
<path d="M696.155 270.802H645.105V429.978H696.155V270.802Z" fill="#DBDBDB"/>
<path d="M607.098 206.578H556.048V429.978H607.098V206.578Z" fill="#DBDBDB"/>
<path d="M517.992 141.187H466.942V430.026H517.992V141.187Z" fill="#DBDBDB"/>
<path d="M428.935 74.5312H377.885V430.026H428.935V74.5312Z" fill="#DBDBDB"/>
<path d="M785.212 430.026L1113.65 735.056L1163 780.805L1017.44 781L980.457 735.25L734.163 430.026H785.212Z" fill="#E3E3E3"/>
<path d="M696.155 430.026L880.937 735.056L908.725 780.805L763.07 781L747.643 735.25L645.105 430.026H696.155Z" fill="#E3E3E3"/>
<path d="M607.049 430.026L648.22 735.056L654.449 780.805L508.746 781L514.829 735.25L556.048 430.026H607.049Z" fill="#E3E3E3"/>
<path d="M517.992 430.026L415.503 735.056L400.174 780.805L254.373 781L282.015 735.25L466.942 430.026H517.992Z" fill="#E3E3E3"/>
<path d="M428.935 430.026L182.738 735.056L145.898 780.805L0 781L49.2491 735.25L377.885 430.026H428.935Z" fill="#E3E3E3"/>
<path d="M762.972 274.449L822.879 358.023H703.065L762.972 274.449Z" fill="#DBDBDB"/>
<path d="M670.168 203.563L730.124 287.138H610.261L670.168 203.563Z" fill="#DBDBDB"/>
<path d="M582.863 134.478L642.77 218.052H522.956L582.863 134.478Z" fill="#DBDBDB"/>
<path d="M492.491 69.0864L552.398 152.612H432.584L492.491 69.0864Z" fill="#DBDBDB"/>
<path d="M404.553 0L464.46 83.5744H344.646L404.553 0Z" fill="#DBDBDB"/>
</g>
<defs>
<clipPath id="clip0_601_278">
<rect width="1163" height="584" fill="white"/>
</clipPath>
</defs>
</svg>
